<svg width="109" height="108" viewBox="0 0 109 108" fill="none" xmlns="http://www.w3.org/2000/svg">
<g filter="url(#filter0_d_1_925)">
<rect x="4" width="101" height="99.6691" rx="20" fill="white"/>
</g>
<rect x="89" y="41.699" width="10" height="10.1703" fill="#E23244"/>
<rect x="76" y="41.699" width="10" height="10.1703" fill="#E23244"/>
<rect x="63" y="41.699" width="10" height="10.1703" fill="#D2D2D2"/>
<rect x="24" y="53.9023" width="10" height="10.1703" fill="#D2D2D2"/>
<rect x="50" y="41.699" width="10" height="10.1703" fill="#D2D2D2"/>
<rect x="11" y="53.9023" width="10" height="10.1703" fill="#D2D2D2"/>
<rect x="37" y="53.9023" width="10" height="10.1703" fill="#D2D2D2"/>
<rect x="89" y="53.9023" width="10" height="10.1703" fill="#D2D2D2"/>
<rect x="76" y="53.9023" width="10" height="10.1703" fill="#D2D2D2"/>
<rect x="63" y="53.9023" width="10" height="10.1703" fill="#D2D2D2"/>
<rect x="24" y="66.1074" width="10" height="10.1703" fill="#D2D2D2"/>
<rect x="50" y="53.9023" width="10" height="10.1703" fill="#D2D2D2"/>
<rect x="11" y="66.1074" width="10" height="10.1703" fill="#D2D2D2"/>
<rect x="37" y="66.1074" width="10" height="10.1703" fill="#D2D2D2"/>
<rect x="89" y="66.1074" width="10" height="10.1703" fill="#D2D2D2"/>
<rect x="76" y="66.1074" width="10" height="10.1703" fill="#D2D2D2"/>
<rect x="63" y="66.1074" width="10" height="10.1703" fill="#D2D2D2"/>
<rect x="24" y="78.3108" width="10" height="10.1703" fill="#D2D2D2"/>
<rect x="50" y="66.1074" width="10" height="10.1703" fill="#D2D2D2"/>
<rect x="11" y="78.3108" width="10" height="10.1703" fill="#D2D2D2"/>
<rect x="37" y="78.3108" width="10" height="10.1703" fill="#D2D2D2"/>
<path d="M4 20C4 8.9543 12.9543 0 24 0H85C96.0457 0 105 8.95431 105 20V32.5H4V20Z" fill="#65C1CE"/>
<path d="M30.416 22.3105C28.7307 22.3105 27.3333 21.7559 26.224 20.6465C25.1147 19.5265 24.56 18.1452 24.56 16.5025C24.56 14.8599 25.1147 13.4839 26.224 12.3745C27.3333 11.2545 28.7307 10.6945 30.416 10.6945C31.7067 10.6945 32.848 11.0732 33.84 11.8305C34.8427 12.5772 35.488 13.5479 35.776 14.7425H33.84C33.6053 14.0599 33.1733 13.5159 32.544 13.1105C31.9147 12.6945 31.2053 12.4865 30.416 12.4865C29.2213 12.4865 28.2507 12.8652 27.504 13.6225C26.768 14.3799 26.4 15.3399 26.4 16.5025C26.4 17.6652 26.768 18.6252 27.504 19.3825C28.2507 20.1399 29.2213 20.5185 30.416 20.5185C31.2053 20.5185 31.9147 20.3159 32.544 19.9105C33.1733 19.4945 33.6053 18.9452 33.84 18.2625H35.776C35.4987 19.4465 34.8587 20.4172 33.856 21.1745C32.8533 21.9319 31.7067 22.3105 30.416 22.3105ZM41.4538 15.2225C42.4884 15.2225 43.3471 15.5479 44.0298 16.1985C44.7124 16.8492 45.0538 17.6705 45.0538 18.6625C45.0538 19.6545 44.7124 20.4759 44.0298 21.1265C43.3471 21.7772 42.4884 22.1025 41.4538 22.1025H37.8538H37.2138V10.9025H39.0538H44.0938V12.6625H39.0538V15.2225H41.4538ZM41.4538 20.3745C41.9551 20.3745 42.3711 20.2199 42.7018 19.9105C43.0431 19.5905 43.2138 19.1745 43.2138 18.6625C43.2138 18.1505 43.0431 17.7399 42.7018 17.4305C42.3711 17.1105 41.9551 16.9505 41.4538 16.9505H39.0538V20.3745H41.4538ZM50.5731 18.0705V16.4065H56.4931V18.0705H50.5731ZM70.0894 15.2065C70.708 15.5052 71.1934 15.9479 71.5454 16.5345C71.908 17.1212 72.0894 17.7772 72.0894 18.5025C72.0894 19.5159 71.7534 20.3692 71.0814 21.0625C70.4094 21.7559 69.5667 22.1025 68.5534 22.1025H63.1294H62.7294V10.9025H64.5694H67.3214C68.2494 10.9025 69.0067 11.1799 69.5934 11.7345C70.1907 12.2892 70.4894 12.9879 70.4894 13.8305C70.4894 14.3105 70.356 14.7692 70.0894 15.2065ZM67.3214 12.6305H64.5694V14.8225H68.2974C68.532 14.5665 68.6494 14.2625 68.6494 13.9105C68.6494 13.5372 68.5267 13.2332 68.2814 12.9985C68.0467 12.7532 67.7267 12.6305 67.3214 12.6305ZM68.3134 20.3745C68.9214 20.3745 69.396 20.1879 69.7374 19.8145C70.0787 19.4412 70.2494 18.9772 70.2494 18.4225C70.2494 17.8572 70.0787 17.3932 69.7374 17.0305C69.4067 16.6572 68.9374 16.4705 68.3294 16.4705H64.5694V20.3745H68.3134ZM78.8848 22.3105C77.1994 22.3105 75.8021 21.7559 74.6928 20.6465C73.5834 19.5265 73.0288 18.1452 73.0288 16.5025C73.0288 14.8599 73.5834 13.4839 74.6928 12.3745C75.8021 11.2545 77.1994 10.6945 78.8848 10.6945C80.1754 10.6945 81.3168 11.0732 82.3088 11.8305C83.3114 12.5772 83.9568 13.5479 84.2448 14.7425H82.3088C82.0741 14.0599 81.6421 13.5159 81.0128 13.1105C80.3834 12.6945 79.6741 12.4865 78.8848 12.4865C77.6901 12.4865 76.7194 12.8652 75.9728 13.6225C75.2368 14.3799 74.8688 15.3399 74.8688 16.5025C74.8688 17.6652 75.2368 18.6252 75.9728 19.3825C76.7194 20.1399 77.6901 20.5185 78.8848 20.5185C79.6741 20.5185 80.3834 20.3159 81.0128 19.9105C81.6421 19.4945 82.0741 18.9452 82.3088 18.2625H84.2448C83.9674 19.4465 83.3274 20.4172 82.3248 21.1745C81.3221 21.9319 80.1754 22.3105 78.8848 22.3105Z" fill="white"/>
<defs>
<filter id="filter0_d_1_925" x="0" y="0" width="109" height="107.669" filterUnits="userSpaceOnUse" color-interpolation-filters="sRGB">
<feFlood flood-opacity="0" result="BackgroundImageFix"/>
<feColorMatrix in="SourceAlpha" type="matrix" values="0 0 0 0 0 0 0 0 0 0 0 0 0 0 0 0 0 0 127 0" result="hardAlpha"/>
<feOffset dy="4"/>
<feGaussianBlur stdDeviation="2"/>
<feComposite in2="hardAlpha" operator="out"/>
<feColorMatrix type="matrix" values="0 0 0 0 0 0 0 0 0 0 0 0 0 0 0 0 0 0 0.25 0"/>
<feBlend mode="normal" in2="BackgroundImageFix" result="effect1_dropShadow_1_925"/>
<feBlend mode="normal" in="SourceGraphic" in2="effect1_dropShadow_1_925" result="shape"/>
</filter>
</defs>
</svg>
