<svg width="28" height="29" viewBox="0 0 28 29" fill="none" xmlns="http://www.w3.org/2000/svg">
<path d="M3.33887 18.6725C3.33887 19.3045 3.80469 19.7497 4.47266 19.7497H6.54688C8.11133 19.7497 9.06055 19.2778 10.124 17.9959L12.1191 15.5923L14.0791 17.9603C15.1689 19.2778 16.2412 19.7586 17.8145 19.7586H19.3789V21.7081C19.3789 22.2423 19.7129 22.5805 20.249 22.5805C20.4863 22.5805 20.7061 22.4915 20.8818 22.3491L24.3447 19.4292C24.7754 19.0731 24.7666 18.4944 24.3447 18.1384L20.8818 15.2095C20.7061 15.0582 20.4863 14.9692 20.249 14.9692C19.7129 14.9692 19.3789 15.3075 19.3789 15.8416V17.5864H17.8584C16.8652 17.5864 16.25 17.257 15.5293 16.3935L13.4902 13.9454L15.5381 11.4795C16.2676 10.5982 16.8301 10.2955 17.8057 10.2955H19.3789V12.0671C19.3789 12.6012 19.7129 12.9395 20.249 12.9395C20.4863 12.9395 20.7061 12.8505 20.8818 12.708L24.3447 9.78812C24.7754 9.43203 24.7666 8.85339 24.3447 8.4973L20.8818 5.56848C20.7061 5.41715 20.4863 5.32812 20.249 5.32812C19.7129 5.32812 19.3789 5.66641 19.3789 6.20054V8.12341H17.8232C16.1973 8.12341 15.1689 8.58632 14.0176 9.99287L12.1191 12.2807L10.124 9.88604C9.06055 8.60413 8.0498 8.12341 6.48535 8.12341H4.47266C3.80469 8.12341 3.33887 8.57742 3.33887 9.20947C3.33887 9.84153 3.81348 10.2955 4.47266 10.2955H6.40625C7.35547 10.2955 7.98828 10.616 8.70898 11.4884L10.7393 13.9365L8.70898 16.3935C7.97949 17.2659 7.4082 17.5864 6.46777 17.5864H4.47266C3.81348 17.5864 3.33887 18.0404 3.33887 18.6725Z" fill="rgba(3, 102, 214, 0.5)"/>
</svg>
