<svg width="520.000000" height="68.000000" viewBox="0 0 520 68" fill="none" xmlns="http://www.w3.org/2000/svg" xmlns:xlink="http://www.w3.org/1999/xlink">
	<desc>
			Created with Pixso.
	</desc>
	<defs/>
	<g opacity="0.600000">
		<path id="Arrow 4" d="M-0.25 64.5L519.75 64.5L519.75 67.5L-0.25 67.5L-0.25 64.5Z" fill="#FFFFFF" fill-opacity="1.000000" fill-rule="evenodd"/>
	</g>
	<g opacity="0.600000">
		<path id="Vector" d="M36.67 15.82C34.76 16.67 31.8 18.29 28.45 20.18L12.41 17.97C11.51 17.84 10.59 17.91 9.72 18.16L6.24 19.14C5.94 19.14 5.94 19.43 6.24 19.54L19.63 25.36C15.11 28.03 11.08 30.47 9.32 31.58C9.01 31.77 8.65 31.9 8.28 31.94C7.92 31.99 7.54 31.95 7.19 31.83L3.68 30.74C3.12 30.54 2.52 30.54 1.96 30.74L-0.25 31.64L7.15 37.74C7.52 38.05 7.97 38.25 8.45 38.31C8.93 38.38 9.42 38.31 9.87 38.11C13.4 36.55 22.72 32.31 29.65 28.73C45.04 20.65 46.75 19.25 46.75 17.97C46.75 15.97 40.87 13.9 36.67 15.82L36.67 15.82Z" fill="#FFFFFF" fill-opacity="1.000000" fill-rule="nonzero"/>
	</g>
	<g opacity="0.600000">
		<path id="Vector" d="M513.86 28.76C512.08 27.7 509.02 26.22 505.52 24.59L499 10.76C498.64 9.99 498.09 9.3 497.4 8.74L494.66 6.52C494.51 6.28 494.24 6.44 494.29 6.73L496.13 20.39C491.29 18.24 486.93 16.37 484.99 15.57C484.64 15.42 484.34 15.21 484.1 14.94C483.87 14.67 483.7 14.36 483.62 14.02L482.75 10.67C482.64 10.13 482.31 9.65 481.83 9.31L479.84 8.04L478.23 17.13C478.14 17.59 478.2 18.05 478.4 18.46C478.59 18.88 478.92 19.23 479.33 19.47C482.64 21.43 491.45 26.52 498.39 30.08C513.92 37.92 516.1 38.52 517.26 37.84C519.08 36.78 517.84 31.05 513.86 28.75L513.86 28.76Z" fill="#FFFFFF" fill-opacity="1.000000" fill-rule="nonzero"/>
	</g>
</svg>
