<svg width="25" height="19" viewBox="0 0 25 19" fill="none" xmlns="http://www.w3.org/2000/svg">
<path d="M5.35232 8.12813L8.83454 6.02717C7.91496 5.00882 7.01629 4.01364 6.11752 3.01854C5.93967 2.82221 5.76346 2.62342 5.58165 2.42959C5.16653 1.98716 5.16621 1.53316 5.58595 1.10458C5.62309 1.06666 5.66518 1.03308 5.70539 0.99785C7.18523 -0.299571 6.85232 -0.143966 8.51156 0.410153C10.028 0.916434 11.5218 1.49886 12.9778 2.14267C13.9339 2.56535 14.6969 2.66506 15.6226 1.99853C16.8629 1.09823 18.3239 0.503619 19.8722 0.269006C21.1363 0.0780651 22.382 0.0884017 23.6299 0.420584C25.329 0.87262 25.256 2.49984 24.4462 3.27115C24.0028 3.68132 23.5169 4.04909 22.9958 4.36905C21.6885 5.19502 20.3684 6.00445 19.0287 6.78392C18.834 6.88686 18.6656 7.02874 18.5358 7.1995C18.406 7.37025 18.3179 7.56571 18.2777 7.77198C17.6318 10.4687 16.9566 13.1597 16.2847 15.8511C16.2065 16.1335 16.1132 16.4118 16.0052 16.6854C15.9292 16.8986 15.8075 17.0949 15.6475 17.2622C15.4874 17.4295 15.2925 17.5643 15.0748 17.6583C14.2813 18.015 13.4852 18.367 12.6767 18.6914C11.8402 19.0274 11.4042 18.7243 11.4571 17.8717C11.5901 15.7268 11.7239 13.5819 11.8587 11.4371C11.8661 11.3185 11.8597 11.1995 11.8597 10.9986C11.6157 11.1294 11.4171 11.2353 11.2193 11.3423C9.31467 12.3735 7.45532 13.4933 5.38439 14.217C4.56376 14.5063 3.70919 14.7025 2.83885 14.8014C1.99221 14.8937 1.3361 14.5018 0.967158 13.7269C0.585825 12.9629 0.34912 12.1425 0.267628 11.3025C0.171978 10.1208 0.0782006 8.93891 0.00370768 7.75597C-0.0384977 7.08716 0.279861 6.64422 0.94655 6.33787C2.4752 5.63528 2.3045 5.73695 3.33253 6.57736C3.92681 7.06298 4.53754 7.53175 5.14252 8.00612C5.20953 8.05104 5.27962 8.09182 5.35232 8.12813ZM12.6666 17.4212L12.8114 17.4832C13.1756 17.3266 13.5277 17.1331 13.9068 17.0217C14.5493 16.8331 14.7201 16.3709 14.8668 15.8297C15.664 12.8874 16.4769 9.94886 17.3056 7.01401C17.3949 6.68907 17.5533 6.38439 17.7712 6.11825C17.9891 5.85213 18.2621 5.63002 18.5739 5.4653C19.7208 4.8215 20.8229 4.10661 21.9315 3.40413C22.4625 3.0677 22.981 2.70959 23.4756 2.32772C23.8932 2.00546 23.8294 1.75944 23.3235 1.59825C22.2253 1.24902 21.0976 1.19467 19.9564 1.33188C18.4812 1.50908 17.2049 2.15093 15.9758 2.87997C12.5681 4.90172 9.16535 6.93084 5.76755 8.96732C5.16146 9.32957 5.06824 9.33629 4.52971 8.87434C3.85321 8.29396 3.19247 7.69749 2.5184 7.11465C2.34009 6.96039 2.17238 6.6996 1.87154 6.89663C1.56299 7.09884 1.0595 7.14698 1.11394 7.66495C1.28805 9.32099 1.39197 10.9872 1.6624 12.6294C1.87418 13.9153 2.32357 14.09 3.6629 13.7157C5.11528 13.3099 6.44758 12.6618 7.74018 11.9378C9.10925 11.1712 10.4627 10.3801 11.8256 9.60358C12.4224 9.26355 12.8621 9.45335 12.9593 10.0917C13.0064 10.3458 13.0309 10.6031 13.0326 10.861C12.9892 12.4596 12.9345 14.0578 12.8774 15.656C12.8714 15.8257 12.8191 15.9938 12.8003 16.1637C12.7516 16.5826 12.7105 17.0021 12.6671 17.4214L12.6666 17.4212ZM9.93231 5.37801L13.1952 3.42614C11.3985 2.4864 9.52604 1.68014 7.59494 1.01479C7.45366 0.967055 7.24495 0.937403 7.13211 1.00074C6.78179 1.19809 6.46279 1.4441 6.24811 1.59134L8.06118 3.45537C8.66164 4.07231 9.26199 4.68895 9.93231 5.37801Z" fill="#FFFFFF"/>
</svg>
