<svg width="114" height="50" viewBox="0 0 114 50" fill="none" xmlns="http://www.w3.org/2000/svg">
<path fill-rule="evenodd" clip-rule="evenodd" d="M0 37.8399C0 37.8399 0.0840262 37.877 0.245355 37.9462C0.163561 37.9108 0.0817761 37.8754 0 37.8399ZM0.245355 37.9462C12.8989 43.4227 25.7613 47.8029 37.7069 47.2464C54.5158 46.4633 65.6668 36.8741 65.6668 36.8741L67.6387 38.5545C50.3047 52.0323 32.2704 48.861 32.2704 48.861C32.2704 48.861 42.5792 50.9255 52.1133 48.7911C62.7252 46.4151 72.3833 40.4346 77.1092 37.5082C77.2698 37.4087 77.4247 37.3128 77.5738 37.2207C79.2653 36.1738 80.8863 34.9863 82.4236 33.6679L87.7159 29.1318L92.1115 50L98.602 43.2611L98.7688 21.6958L107.5 12.8521C107.5 12.8521 116.953 3.16618 113.059 0.849142C109.165 -1.4679 104.344 1.69134 104.344 1.69134L92.2889 13.063H68.5519L60.7638 18.327L81.9043 22.538L73.3745 29.2769L70.5569 28.2588C70.5569 28.2588 54.8304 44.3719 36.0059 45.7877C21.5969 46.8741 2.61092 38.9611 0.245355 37.9462ZM62.4368 32.1428C64.3176 30.8184 66.0729 29.2451 67.6711 27.4515L62.671 26.1905L58.3013 29.3351L62.4368 32.1428Z" fill="black"/>
</svg>
